<?xml version="1.0" encoding="UTF-8" standalone="no"?>
<!-- Created with Inkscape (http://www.inkscape.org/) -->

<svg
   xmlns:dc="http://purl.org/dc/elements/1.1/"
   xmlns:cc="http://creativecommons.org/ns#"
   xmlns:rdf="http://www.w3.org/1999/02/22-rdf-syntax-ns#"
   xmlns:svg="http://www.w3.org/2000/svg"
   xmlns="http://www.w3.org/2000/svg"
   xmlns:sodipodi="http://sodipodi.sourceforge.net/DTD/sodipodi-0.dtd"
   xmlns:inkscape="http://www.inkscape.org/namespaces/inkscape"
   width="210mm"
   height="297mm"
   viewBox="0 0 744.09448819 1052.3622047"
   id="svg2"
   version="1.1"
   inkscape:version="0.91 r13725"
   sodipodi:docname="tab.svg">
  <defs
     id="defs4" />
  <sodipodi:namedview
     id="base"
     pagecolor="#ffffff"
     bordercolor="#666666"
     borderopacity="1.0"
     inkscape:pageopacity="0.0"
     inkscape:pageshadow="2"
     inkscape:zoom="0.35355339"
     inkscape:cx="2444.6826"
     inkscape:cy="377.40793"
     inkscape:document-units="px"
     inkscape:current-layer="layer1"
     showgrid="false"
     inkscape:snap-to-guides="true"
     showguides="true"
     inkscape:snap-grids="false"
     inkscape:window-width="700"
     inkscape:window-height="713"
     inkscape:window-x="0"
     inkscape:window-y="0"
     inkscape:window-maximized="0">
    <inkscape:grid
       type="xygrid"
       id="grid4153" />
  </sodipodi:namedview>
  <metadata
     id="metadata7">
    <rdf:RDF>
      <cc:Work
         rdf:about="">
        <dc:format>image/svg+xml</dc:format>
        <dc:type
           rdf:resource="http://purl.org/dc/dcmitype/StillImage" />
        <dc:title></dc:title>
      </cc:Work>
    </rdf:RDF>
  </metadata>
  <g
     inkscape:label="Layer 1"
     inkscape:groupmode="layer"
     id="layer1">
    <g
       id="g4215"
       inkscape:export-xdpi="90"
       inkscape:export-ydpi="90">
      <g
         transform="translate(310,62)"
         style="fill:#004455"
         id="g4157">
        <path
           sodipodi:nodetypes="cccccccsssccccccc"
           inkscape:connector-curvature="0"
           id="path4151"
           d="m 2447.8571,126.41949 c -163.7729,0.0407 -297.4685,37.6739 -301.0938,84.75299 l -0.2363,0 0,1.3597 c -0.035,0.18676 -0.067,0.37354 -0.098,0.56035 0.028,0.26448 0.061,0.52892 0.098,0.79332 l 0,617.00637 150.6651,0 c 60.2771,0 90.3879,102.8307 150.665,102.83071 60.2771,10e-6 90.388,-102.83071 150.6651,-102.83071 l 150.665,0 0,-617.23935 c 0.035,-0.18675 0.067,-0.37353 0.098,-0.56034 -0.028,-0.26448 -0.061,-0.52892 -0.098,-0.79332 l 0,-1.12673 -0.1387,0 c -3.6262,-47.08999 -137.3806,-84.72747 -301.1914,-84.75299 z"
           style="fill:#004455;fill-opacity:1;stroke:none;stroke-width:0.4982613;stroke-linejoin:round;stroke-miterlimit:4;stroke-dasharray:none;stroke-opacity:1" />
        <path
           style="fill:#004455;fill-opacity:1;fill-rule:evenodd;stroke:none;stroke-width:1px;stroke-linecap:butt;stroke-linejoin:miter;stroke-opacity:1"
           d="m 2115,802.3622 31.5313,28.52344 12.6192,-11.16157 -7.4246,-28.99137 z"
           id="path4155"
           inkscape:connector-curvature="0" />
      </g>
      <path
         sodipodi:nodetypes="cccccccsssccccccc"
         inkscape:connector-curvature="0"
         id="rect3341"
         d="m 2726.4286,179.44196 c -163.7729,0.0396 -297.4685,36.63681 -301.0938,82.41992 l -0.2363,0 0,1.32227 c -0.035,0.18161 -0.067,0.36325 -0.098,0.54492 0.028,0.2572 0.061,0.51436 0.098,0.77148 l 0,600.02149 150.6651,0 c 60.2771,0 90.3879,99.99999 150.665,100 60.2771,1e-5 90.388,-100 150.6651,-100 l 150.665,0 0,-600.24805 c 0.035,-0.18161 0.067,-0.36325 0.098,-0.54492 -0.028,-0.2572 -0.061,-0.51436 -0.098,-0.77148 l 0,-1.09571 -0.1387,0 c -3.6262,-45.79371 -137.3806,-82.39511 -301.1914,-82.41992 z"
         style="fill:#0088aa;fill-opacity:1;stroke:none;stroke-width:0.4982613;stroke-linejoin:round;stroke-miterlimit:4;stroke-dasharray:none;stroke-opacity:1" />
      <text
         transform="matrix(1,0,-0.07574979,1,0,0)"
         sodipodi:linespacing="125%"
         id="text4161"
         y="713.93561"
         x="2554.5916"
         style="font-style:italic;font-variant:normal;font-weight:500;font-stretch:normal;font-size:351.96252441px;line-height:125%;font-family:'Gargi-1.2b';-inkscape-font-specification:'Gargi-1.2b, Medium Italic';text-align:start;letter-spacing:0px;word-spacing:0px;writing-mode:lr-tb;text-anchor:start;fill-opacity:1;stroke:none;stroke-width:1px;stroke-linecap:butt;stroke-linejoin:miter;stroke-opacity:1;fill:#ffffff;"
         xml:space="preserve"><tspan
           y="713.93561"
           x="2554.5916"
           id="tspan4163"
           sodipodi:role="line">12</tspan></text>
      <path
         id="path4167"
         d="M 2728 227.03125 A 307.77817 79 0 0 0 2425.1562 292.08203 L 2425.1562 308.02734 A 307.77817 79 0 0 1 2728 242.58789 A 307.77817 79 0 0 1 3027.75 304.42188 L 3027.75 288.43359 A 307.77817 79 0 0 0 2728 227.03125 z "
         style="fill-opacity:1;stroke:none;stroke-width:0.30000001;stroke-linejoin:round;stroke-miterlimit:4;stroke-dasharray:none;stroke-opacity:1;fill:#ffffff" />
      <path
         id="path4173"
         d="M 3027.375 758.63086 A 303.35875 77.396515 0 0 1 2725.8867 828.25781 A 303.35875 77.396515 0 0 1 2425.1094 760.54688 L 2425.1094 775.62695 A 303.35875 77.396515 0 0 0 2725.8867 843.5 A 303.35875 77.396515 0 0 0 3027.375 774.42969 L 3027.375 758.63086 z "
         style="fill-opacity:1;stroke:none;stroke-width:0.30000001;stroke-linejoin:round;stroke-miterlimit:4;stroke-dasharray:none;stroke-opacity:1;fill:#ffffff" />
    </g>
  </g>
</svg>
